TITLE ""
FILE "2Q_t_1270-1286.mp3" MP3
  TRACK 01 AUDIO
    TITLE "2Q_t_1270-1286_01"
    INDEX 01 00:00:00
  TRACK 02 AUDIO
    TITLE "2Q_t_1270-1286_02"
    INDEX 01 00:00:12
  TRACK 03 AUDIO
    TITLE "2Q_t_1270-1286_03"
    INDEX 01 00:01:23
  TRACK 04 AUDIO
    TITLE "2Q_t_1270-1286_04"
    INDEX 01 00:01:72
  TRACK 05 AUDIO
    TITLE "2Q_t_1270-1286_05"
    INDEX 01 00:04:14
  TRACK 06 AUDIO
    TITLE "2Q_t_1270-1286_06"
    INDEX 01 00:04:63
  TRACK 07 AUDIO
    TITLE "2Q_t_1270-1286_07"
    INDEX 01 00:05:62
  TRACK 08 AUDIO
    TITLE "2Q_t_1270-1286_08"
    INDEX 01 00:06:36
  TRACK 09 AUDIO
    TITLE "2Q_t_1270-1286_09"
    INDEX 01 00:08:16
  TRACK 10 AUDIO
    TITLE "2Q_t_1270-1286_10"
    INDEX 01 00:08:61
  TRACK 11 AUDIO
    TITLE "2Q_t_1270-1286_11"
    INDEX 01 00:09:74
  TRACK 12 AUDIO
    TITLE "2Q_t_1270-1286_12"
    INDEX 01 00:10:50
  TRACK 13 AUDIO
    TITLE "2Q_t_1270-1286_13"
    INDEX 01 00:11:69
  TRACK 14 AUDIO
    TITLE "2Q_t_1270-1286_14"
    INDEX 01 00:12:41
  TRACK 15 AUDIO
    TITLE "2Q_t_1270-1286_15"
    INDEX 01 00:13:52
  TRACK 16 AUDIO
    TITLE "2Q_t_1270-1286_16"
    INDEX 01 00:14:24
  TRACK 17 AUDIO
    TITLE "2Q_t_1270-1286_17"
    INDEX 01 00:17:28
  TRACK 18 AUDIO
    TITLE "2Q_t_1270-1286_18"
    INDEX 01 00:18:00
  TRACK 19 AUDIO
    TITLE "2Q_t_1270-1286_19"
    INDEX 01 00:19:33
  TRACK 20 AUDIO
    TITLE "2Q_t_1270-1286_20"
    INDEX 01 00:20:09
  TRACK 21 AUDIO
    TITLE "2Q_t_1270-1286_21"
    INDEX 01 00:22:51
  TRACK 22 AUDIO
    TITLE "2Q_t_1270-1286_22"
    INDEX 01 00:23:21
  TRACK 23 AUDIO
    TITLE "2Q_t_1270-1286_23"
    INDEX 01 00:24:26
  TRACK 24 AUDIO
    TITLE "2Q_t_1270-1286_24"
    INDEX 01 00:25:12
  TRACK 25 AUDIO
    TITLE "2Q_t_1270-1286_25"
    INDEX 01 00:28:01
  TRACK 26 AUDIO
    TITLE "2Q_t_1270-1286_26"
    INDEX 01 00:28:46
  TRACK 27 AUDIO
    TITLE "2Q_t_1270-1286_27"
    INDEX 01 00:29:67
  TRACK 28 AUDIO
    TITLE "2Q_t_1270-1286_28"
    INDEX 01 00:30:41
  TRACK 29 AUDIO
    TITLE "2Q_t_1270-1286_29"
    INDEX 01 00:32:53
  TRACK 30 AUDIO
    TITLE "2Q_t_1270-1286_30"
    INDEX 01 00:33:23
  TRACK 31 AUDIO
    TITLE "2Q_t_1270-1286_31"
    INDEX 01 00:34:29
  TRACK 32 AUDIO
    TITLE "2Q_t_1270-1286_32"
    INDEX 01 00:35:01
  TRACK 33 AUDIO
    TITLE "2Q_t_1270-1286_33"
    INDEX 01 00:36:61
  TRACK 34 AUDIO
    TITLE "2Q_t_1270-1286_34"
    INDEX 01 00:37:31
  TRACK 35 AUDIO
    TITLE "2Q_t_1270-1286_35"
    INDEX 01 00:38:70
  TRACK 36 AUDIO
    TITLE "2Q_t_1270-1286_36"
    INDEX 01 00:39:42
  TRACK 37 AUDIO
    TITLE "2Q_t_1270-1286_37"
    INDEX 01 00:40:67
  TRACK 38 AUDIO
    TITLE "2Q_t_1270-1286_38"
    INDEX 01 00:41:37
  TRACK 39 AUDIO
    TITLE "2Q_t_1270-1286_39"
    INDEX 01 00:42:32
  TRACK 40 AUDIO
    TITLE "2Q_t_1270-1286_40"
    INDEX 01 00:43:16
  TRACK 41 AUDIO
    TITLE "2Q_t_1270-1286_41"
    INDEX 01 00:44:55
  TRACK 42 AUDIO
    TITLE "2Q_t_1270-1286_42"
    INDEX 01 00:45:25
  TRACK 43 AUDIO
    TITLE "2Q_t_1270-1286_43"
    INDEX 01 00:46:30
  TRACK 44 AUDIO
    TITLE "2Q_t_1270-1286_44"
    INDEX 01 00:47:02
  TRACK 45 AUDIO
    TITLE "2Q_t_1270-1286_45"
    INDEX 01 00:48:62
  TRACK 46 AUDIO
    TITLE "2Q_t_1270-1286_46"
    INDEX 01 00:49:32
  TRACK 47 AUDIO
    TITLE "2Q_t_1270-1286_47"
    INDEX 01 00:50:40
  TRACK 48 AUDIO
    TITLE "2Q_t_1270-1286_48"
    INDEX 01 00:51:12
  TRACK 49 AUDIO
    TITLE "2Q_t_1270-1286_49"
    INDEX 01 00:53:03
  TRACK 50 AUDIO
    TITLE "2Q_t_1270-1286_50"
    INDEX 01 00:53:48
  TRACK 51 AUDIO
    TITLE "2Q_t_1270-1286_51"
    INDEX 01 00:55:03
  TRACK 52 AUDIO
    TITLE "2Q_t_1270-1286_52"
    INDEX 01 00:55:54
  TRACK 53 AUDIO
    TITLE "2Q_t_1270-1286_53"
    INDEX 01 00:58:14
  TRACK 54 AUDIO
    TITLE "2Q_t_1270-1286_54"
    INDEX 01 00:58:59
  TRACK 55 AUDIO
    TITLE "2Q_t_1270-1286_55"
    INDEX 01 01:00:05
  TRACK 56 AUDIO
    TITLE "2Q_t_1270-1286_56"
    INDEX 01 01:00:50
  TRACK 57 AUDIO
    TITLE "2Q_t_1270-1286_57"
    INDEX 01 01:01:71
  TRACK 58 AUDIO
    TITLE "2Q_t_1270-1286_58"
    INDEX 01 01:02:45
  TRACK 59 AUDIO
    TITLE "2Q_t_1270-1286_59"
    INDEX 01 01:05:39
  TRACK 60 AUDIO
    TITLE "2Q_t_1270-1286_60"
    INDEX 01 01:06:11
  TRACK 61 AUDIO
    TITLE "2Q_t_1270-1286_61"
    INDEX 01 01:07:22
  TRACK 62 AUDIO
    TITLE "2Q_t_1270-1286_62"
    INDEX 01 01:07:65
  TRACK 63 AUDIO
    TITLE "2Q_t_1270-1286_63"
    INDEX 01 01:10:48
  TRACK 64 AUDIO
    TITLE "2Q_t_1270-1286_64"
    INDEX 01 01:11:18
  TRACK 65 AUDIO
    TITLE "2Q_t_1270-1286_65"
    INDEX 01 01:12:25
  TRACK 66 AUDIO
    TITLE "2Q_t_1270-1286_66"
    INDEX 01 01:12:74
  TRACK 67 AUDIO
    TITLE "2Q_t_1270-1286_67"
    INDEX 01 01:15:14
  TRACK 68 AUDIO
    TITLE "2Q_t_1270-1286_68"
    INDEX 01 01:15:59
  TRACK 69 AUDIO
    TITLE "2Q_t_1270-1286_69"
    INDEX 01 01:16:74
  TRACK 70 AUDIO
    TITLE "2Q_t_1270-1286_70"
    INDEX 01 01:17:44
  TRACK 71 AUDIO
    TITLE "2Q_t_1270-1286_71"
    INDEX 01 01:19:02
